<mxfile host="app.diagrams.net" modified="2023-03-15T05:46:04.963Z" agent="5.0 (X11; Linux x86_64) AppleWebKit/537.36 (KHTML, like Gecko) Chrome/110.0.0.0 Safari/537.36" etag="xdHbDDNcnP38uvIQdEz6" version="21.0.6" type="github">
  <diagram name="Page-1" id="74e2e168-ea6b-b213-b513-2b3c1d86103e">
    <mxGraphModel dx="1362" dy="714" grid="1" gridSize="10" guides="1" tooltips="1" connect="1" arrows="1" fold="1" page="1" pageScale="1" pageWidth="1100" pageHeight="850" background="none" math="0" shadow="0">
      <root>
        <mxCell id="0" />
        <mxCell id="1" parent="0" />
        <mxCell id="ErkjVR_Kb-ZnLnvYWNeu-3" value="" style="edgeStyle=orthogonalEdgeStyle;rounded=0;orthogonalLoop=1;jettySize=auto;html=1;" edge="1" parent="1" source="ErkjVR_Kb-ZnLnvYWNeu-1" target="ErkjVR_Kb-ZnLnvYWNeu-2">
          <mxGeometry relative="1" as="geometry">
            <Array as="points">
              <mxPoint x="290" y="180" />
            </Array>
          </mxGeometry>
        </mxCell>
        <mxCell id="ErkjVR_Kb-ZnLnvYWNeu-5" style="edgeStyle=orthogonalEdgeStyle;rounded=0;orthogonalLoop=1;jettySize=auto;html=1;" edge="1" parent="1" source="ErkjVR_Kb-ZnLnvYWNeu-1" target="ErkjVR_Kb-ZnLnvYWNeu-4">
          <mxGeometry relative="1" as="geometry">
            <Array as="points">
              <mxPoint x="290" y="340" />
            </Array>
          </mxGeometry>
        </mxCell>
        <mxCell id="ErkjVR_Kb-ZnLnvYWNeu-1" value="Loading config file" style="rounded=1;whiteSpace=wrap;html=1;fontStyle=1" vertex="1" parent="1">
          <mxGeometry x="210" y="240" width="160" height="40" as="geometry" />
        </mxCell>
        <mxCell id="ErkjVR_Kb-ZnLnvYWNeu-7" value="" style="edgeStyle=orthogonalEdgeStyle;rounded=0;orthogonalLoop=1;jettySize=auto;html=1;" edge="1" parent="1" source="ErkjVR_Kb-ZnLnvYWNeu-2" target="ErkjVR_Kb-ZnLnvYWNeu-6">
          <mxGeometry relative="1" as="geometry" />
        </mxCell>
        <mxCell id="ErkjVR_Kb-ZnLnvYWNeu-2" value="List of times to call the prediction&lt;br&gt;for each currency pair&amp;nbsp;" style="whiteSpace=wrap;html=1;rounded=1;fontStyle=1;" vertex="1" parent="1">
          <mxGeometry x="450" y="160" width="240" height="40" as="geometry" />
        </mxCell>
        <mxCell id="ErkjVR_Kb-ZnLnvYWNeu-9" style="edgeStyle=orthogonalEdgeStyle;rounded=0;orthogonalLoop=1;jettySize=auto;html=1;entryX=0;entryY=0.5;entryDx=0;entryDy=0;" edge="1" parent="1" source="ErkjVR_Kb-ZnLnvYWNeu-4" target="ErkjVR_Kb-ZnLnvYWNeu-8">
          <mxGeometry relative="1" as="geometry" />
        </mxCell>
        <mxCell id="ErkjVR_Kb-ZnLnvYWNeu-4" value="List of times to call the validation&lt;br&gt;for each currency pair&amp;nbsp;" style="whiteSpace=wrap;html=1;rounded=1;fontStyle=1;" vertex="1" parent="1">
          <mxGeometry x="450" y="320" width="240" height="40" as="geometry" />
        </mxCell>
        <mxCell id="ErkjVR_Kb-ZnLnvYWNeu-6" value="&lt;font color=&quot;#0000ff&quot;&gt;KRW/USD&lt;/font&gt;: (2,04,08),(6,8,12) ...&lt;br&gt;&lt;font color=&quot;#0000ff&quot;&gt;EUR/USD&lt;/font&gt;: (2,04,08),(6,8,12) ...&lt;br&gt;&lt;font color=&quot;#0000ff&quot;&gt;VND/USD&lt;/font&gt;: (2,04,08),(6,8,12) ...&lt;br&gt;...." style="whiteSpace=wrap;html=1;rounded=1;fontStyle=1;fillColor=#f8cecc;strokeColor=#b85450;" vertex="1" parent="1">
          <mxGeometry x="770" y="140" width="240" height="80" as="geometry" />
        </mxCell>
        <mxCell id="ErkjVR_Kb-ZnLnvYWNeu-8" value="&lt;font color=&quot;#0000ff&quot;&gt;KRW/USD&lt;/font&gt;: (4.30,04,08),(8.40,8,12) ...&lt;br&gt;&lt;font color=&quot;#0000ff&quot;&gt;EUR/USD&lt;/font&gt;: (4.30,04,08),(8.40,8,12) ...&lt;br&gt;&lt;font color=&quot;#0000ff&quot;&gt;VND/USD&lt;/font&gt;: (4.30,04,08),(8.40,8,12) ...&lt;br&gt;...." style="whiteSpace=wrap;html=1;rounded=1;fontStyle=1;fillColor=#f8cecc;strokeColor=#b85450;" vertex="1" parent="1">
          <mxGeometry x="770" y="300" width="240" height="80" as="geometry" />
        </mxCell>
        <mxCell id="ErkjVR_Kb-ZnLnvYWNeu-14" value="" style="edgeStyle=orthogonalEdgeStyle;rounded=0;orthogonalLoop=1;jettySize=auto;html=1;" edge="1" parent="1" source="ErkjVR_Kb-ZnLnvYWNeu-10">
          <mxGeometry relative="1" as="geometry">
            <mxPoint x="690" y="480" as="targetPoint" />
          </mxGeometry>
        </mxCell>
        <mxCell id="ErkjVR_Kb-ZnLnvYWNeu-10" value="Call func for preparing &lt;br&gt;1. the&lt;font color=&quot;#0000ff&quot;&gt;&amp;nbsp;KRW/USD&amp;nbsp;&lt;/font&gt;input&lt;font color=&quot;#0000ff&quot;&gt;&amp;nbsp;&lt;/font&gt;&lt;br&gt;2. the&amp;nbsp;&lt;font color=&quot;#0000ff&quot;&gt;EUR/USD&amp;nbsp;&lt;/font&gt;input&lt;br&gt;3. the&amp;nbsp;&lt;font color=&quot;#0000ff&quot;&gt;VND/USD&amp;nbsp;&lt;/font&gt;input&lt;br&gt;....." style="whiteSpace=wrap;html=1;rounded=1;fontStyle=1;" vertex="1" parent="1">
          <mxGeometry x="410" y="440" width="240" height="80" as="geometry" />
        </mxCell>
        <mxCell id="ErkjVR_Kb-ZnLnvYWNeu-12" style="edgeStyle=orthogonalEdgeStyle;rounded=0;orthogonalLoop=1;jettySize=auto;html=1;" edge="1" parent="1" source="ErkjVR_Kb-ZnLnvYWNeu-11" target="ErkjVR_Kb-ZnLnvYWNeu-10">
          <mxGeometry relative="1" as="geometry" />
        </mxCell>
        <mxCell id="ErkjVR_Kb-ZnLnvYWNeu-11" value="&lt;font color=&quot;#0000ff&quot;&gt;2h&lt;br&gt;6h&lt;br&gt;8h&lt;br&gt;...&lt;br&gt;&lt;/font&gt;" style="whiteSpace=wrap;html=1;rounded=1;fontStyle=1;" vertex="1" parent="1">
          <mxGeometry x="250" y="440" width="80" height="80" as="geometry" />
        </mxCell>
        <mxCell id="ErkjVR_Kb-ZnLnvYWNeu-15" value="The functions need be called parallel.&amp;nbsp;&lt;br&gt;how many currency pairs can call at the same time (depend on hardware)" style="rounded=1;whiteSpace=wrap;html=1;" vertex="1" parent="1">
          <mxGeometry x="410" y="530" width="240" height="60" as="geometry" />
        </mxCell>
        <mxCell id="ErkjVR_Kb-ZnLnvYWNeu-18" value="" style="edgeStyle=orthogonalEdgeStyle;rounded=0;orthogonalLoop=1;jettySize=auto;html=1;" edge="1" parent="1" source="ErkjVR_Kb-ZnLnvYWNeu-16" target="ErkjVR_Kb-ZnLnvYWNeu-17">
          <mxGeometry relative="1" as="geometry" />
        </mxCell>
        <mxCell id="ErkjVR_Kb-ZnLnvYWNeu-16" value="Joining inputs" style="whiteSpace=wrap;html=1;rounded=1;fontStyle=1;" vertex="1" parent="1">
          <mxGeometry x="690" y="460" width="120" height="40" as="geometry" />
        </mxCell>
        <mxCell id="ErkjVR_Kb-ZnLnvYWNeu-20" value="" style="edgeStyle=orthogonalEdgeStyle;rounded=0;orthogonalLoop=1;jettySize=auto;html=1;" edge="1" parent="1" source="ErkjVR_Kb-ZnLnvYWNeu-17" target="ErkjVR_Kb-ZnLnvYWNeu-19">
          <mxGeometry relative="1" as="geometry" />
        </mxCell>
        <mxCell id="ErkjVR_Kb-ZnLnvYWNeu-17" value="(AWS lamdas)&lt;br&gt;Models" style="whiteSpace=wrap;html=1;rounded=1;fontStyle=1;fillColor=#fff2cc;strokeColor=#d6b656;" vertex="1" parent="1">
          <mxGeometry x="850" y="440" width="120" height="80" as="geometry" />
        </mxCell>
        <mxCell id="ErkjVR_Kb-ZnLnvYWNeu-22" value="" style="edgeStyle=orthogonalEdgeStyle;rounded=0;orthogonalLoop=1;jettySize=auto;html=1;" edge="1" parent="1" source="ErkjVR_Kb-ZnLnvYWNeu-19" target="ErkjVR_Kb-ZnLnvYWNeu-21">
          <mxGeometry relative="1" as="geometry" />
        </mxCell>
        <mxCell id="ErkjVR_Kb-ZnLnvYWNeu-19" value="Finish" style="whiteSpace=wrap;html=1;rounded=1;fontStyle=1;" vertex="1" parent="1">
          <mxGeometry x="850" y="600" width="120" height="80" as="geometry" />
        </mxCell>
        <mxCell id="ErkjVR_Kb-ZnLnvYWNeu-24" value="" style="edgeStyle=orthogonalEdgeStyle;rounded=0;orthogonalLoop=1;jettySize=auto;html=1;" edge="1" parent="1" source="ErkjVR_Kb-ZnLnvYWNeu-21" target="ErkjVR_Kb-ZnLnvYWNeu-23">
          <mxGeometry relative="1" as="geometry" />
        </mxCell>
        <mxCell id="ErkjVR_Kb-ZnLnvYWNeu-21" value="Prediction result:&lt;font style=&quot;border-color: var(--border-color);&quot; color=&quot;#0000ff&quot;&gt;&amp;nbsp;KRW/USD&amp;nbsp;&lt;/font&gt;&lt;br style=&quot;border-color: var(--border-color);&quot;&gt;Prediction result:&amp;nbsp;&lt;font style=&quot;border-color: var(--border-color);&quot; color=&quot;#0000ff&quot;&gt;EUR/USD&lt;/font&gt;&lt;br style=&quot;border-color: var(--border-color);&quot;&gt;Prediction result:&amp;nbsp;&lt;font style=&quot;border-color: var(--border-color);&quot; color=&quot;#0000ff&quot;&gt;VND/USD&lt;/font&gt;&lt;br style=&quot;border-color: var(--border-color);&quot;&gt;....." style="whiteSpace=wrap;html=1;rounded=1;fontStyle=1;" vertex="1" parent="1">
          <mxGeometry x="570" y="600" width="240" height="80" as="geometry" />
        </mxCell>
        <mxCell id="ErkjVR_Kb-ZnLnvYWNeu-23" value="After that update to the database automatically" style="whiteSpace=wrap;html=1;rounded=1;fontStyle=1;fillColor=#f8cecc;strokeColor=#b85450;" vertex="1" parent="1">
          <mxGeometry x="250" y="600" width="240" height="80" as="geometry" />
        </mxCell>
        <mxCell id="ErkjVR_Kb-ZnLnvYWNeu-25" value="" style="edgeStyle=orthogonalEdgeStyle;rounded=0;orthogonalLoop=1;jettySize=auto;html=1;" edge="1" parent="1" source="ErkjVR_Kb-ZnLnvYWNeu-26" target="ErkjVR_Kb-ZnLnvYWNeu-38">
          <mxGeometry relative="1" as="geometry">
            <mxPoint x="650" y="970" as="targetPoint" />
          </mxGeometry>
        </mxCell>
        <mxCell id="ErkjVR_Kb-ZnLnvYWNeu-26" value="Call the function to collecting data&amp;nbsp;&lt;br&gt;1. the&lt;font style=&quot;border-color: var(--border-color);&quot; color=&quot;#0000ff&quot;&gt;&amp;nbsp;KRW/USD&amp;nbsp;&lt;/font&gt;&lt;br style=&quot;border-color: var(--border-color);&quot;&gt;2. the&amp;nbsp;&lt;font style=&quot;border-color: var(--border-color);&quot; color=&quot;#0000ff&quot;&gt;EUR/USD&lt;/font&gt;&lt;br style=&quot;border-color: var(--border-color);&quot;&gt;3. the&amp;nbsp;&lt;font style=&quot;border-color: var(--border-color);&quot; color=&quot;#0000ff&quot;&gt;VND/USD&lt;/font&gt;&lt;br&gt;&amp;nbsp;..." style="whiteSpace=wrap;html=1;rounded=1;fontStyle=1;" vertex="1" parent="1">
          <mxGeometry x="370" y="920" width="240" height="100" as="geometry" />
        </mxCell>
        <mxCell id="ErkjVR_Kb-ZnLnvYWNeu-27" style="edgeStyle=orthogonalEdgeStyle;rounded=0;orthogonalLoop=1;jettySize=auto;html=1;" edge="1" parent="1" source="ErkjVR_Kb-ZnLnvYWNeu-28" target="ErkjVR_Kb-ZnLnvYWNeu-26">
          <mxGeometry relative="1" as="geometry" />
        </mxCell>
        <mxCell id="ErkjVR_Kb-ZnLnvYWNeu-28" value="&lt;font color=&quot;#0000ff&quot;&gt;4h&lt;br&gt;8h&lt;br&gt;12h&lt;br&gt;...&lt;br&gt;&lt;/font&gt;" style="whiteSpace=wrap;html=1;rounded=1;fontStyle=1;" vertex="1" parent="1">
          <mxGeometry x="210" y="930" width="80" height="80" as="geometry" />
        </mxCell>
        <mxCell id="ErkjVR_Kb-ZnLnvYWNeu-29" value="The functions need be called parallel.&amp;nbsp;" style="rounded=1;whiteSpace=wrap;html=1;" vertex="1" parent="1">
          <mxGeometry x="370" y="1030" width="240" height="30" as="geometry" />
        </mxCell>
        <mxCell id="ErkjVR_Kb-ZnLnvYWNeu-38" value="After that update to the database automatically" style="whiteSpace=wrap;html=1;rounded=1;fontStyle=1;fillColor=#f8cecc;strokeColor=#b85450;" vertex="1" parent="1">
          <mxGeometry x="690" y="930" width="240" height="80" as="geometry" />
        </mxCell>
        <mxCell id="ErkjVR_Kb-ZnLnvYWNeu-39" value="" style="edgeStyle=orthogonalEdgeStyle;rounded=0;orthogonalLoop=1;jettySize=auto;html=1;" edge="1" parent="1" source="ErkjVR_Kb-ZnLnvYWNeu-40" target="ErkjVR_Kb-ZnLnvYWNeu-44">
          <mxGeometry relative="1" as="geometry">
            <mxPoint x="650" y="1170" as="targetPoint" />
          </mxGeometry>
        </mxCell>
        <mxCell id="ErkjVR_Kb-ZnLnvYWNeu-40" value="Load prediction result for current session&lt;br&gt;Load collected data" style="whiteSpace=wrap;html=1;rounded=1;fontStyle=1;" vertex="1" parent="1">
          <mxGeometry x="370" y="1120" width="240" height="100" as="geometry" />
        </mxCell>
        <mxCell id="ErkjVR_Kb-ZnLnvYWNeu-41" style="edgeStyle=orthogonalEdgeStyle;rounded=0;orthogonalLoop=1;jettySize=auto;html=1;" edge="1" parent="1" source="ErkjVR_Kb-ZnLnvYWNeu-42" target="ErkjVR_Kb-ZnLnvYWNeu-40">
          <mxGeometry relative="1" as="geometry" />
        </mxCell>
        <mxCell id="ErkjVR_Kb-ZnLnvYWNeu-42" value="&lt;font color=&quot;#0000ff&quot;&gt;4h40&lt;br&gt;8h40&lt;br&gt;12h40&lt;br&gt;...&lt;br&gt;&lt;/font&gt;" style="whiteSpace=wrap;html=1;rounded=1;fontStyle=1;" vertex="1" parent="1">
          <mxGeometry x="210" y="1130" width="80" height="80" as="geometry" />
        </mxCell>
        <mxCell id="ErkjVR_Kb-ZnLnvYWNeu-65" style="edgeStyle=orthogonalEdgeStyle;rounded=0;orthogonalLoop=1;jettySize=auto;html=1;" edge="1" parent="1" source="ErkjVR_Kb-ZnLnvYWNeu-44" target="ErkjVR_Kb-ZnLnvYWNeu-63">
          <mxGeometry relative="1" as="geometry">
            <Array as="points">
              <mxPoint x="980" y="1170" />
            </Array>
          </mxGeometry>
        </mxCell>
        <mxCell id="ErkjVR_Kb-ZnLnvYWNeu-44" value="Call Function &lt;br&gt;Prepare([&lt;font color=&quot;#0000ff&quot;&gt;KRW/USD&lt;/font&gt;], predict, real value)&lt;br&gt;Prepare([&lt;font color=&quot;#0000ff&quot;&gt;EUR/USD&lt;/font&gt;], predict, real value)&lt;br&gt;Prepare([&lt;font color=&quot;#0000ff&quot;&gt;VND/USD&lt;/font&gt;], predict, real value)&lt;br&gt;.." style="whiteSpace=wrap;html=1;rounded=1;fontStyle=1;" vertex="1" parent="1">
          <mxGeometry x="650" y="1130" width="240" height="80" as="geometry" />
        </mxCell>
        <mxCell id="ErkjVR_Kb-ZnLnvYWNeu-45" value="The functions need be called parallel.&amp;nbsp;" style="rounded=1;whiteSpace=wrap;html=1;" vertex="1" parent="1">
          <mxGeometry x="650" y="1220" width="240" height="30" as="geometry" />
        </mxCell>
        <mxCell id="ErkjVR_Kb-ZnLnvYWNeu-50" value="" style="edgeStyle=orthogonalEdgeStyle;rounded=0;orthogonalLoop=1;jettySize=auto;html=1;" edge="1" parent="1" source="ErkjVR_Kb-ZnLnvYWNeu-47" target="ErkjVR_Kb-ZnLnvYWNeu-49">
          <mxGeometry relative="1" as="geometry" />
        </mxCell>
        <mxCell id="ErkjVR_Kb-ZnLnvYWNeu-53" value="" style="edgeStyle=orthogonalEdgeStyle;rounded=0;orthogonalLoop=1;jettySize=auto;html=1;" edge="1" parent="1" source="ErkjVR_Kb-ZnLnvYWNeu-47" target="ErkjVR_Kb-ZnLnvYWNeu-52">
          <mxGeometry relative="1" as="geometry">
            <Array as="points">
              <mxPoint x="810" y="1430" />
            </Array>
          </mxGeometry>
        </mxCell>
        <mxCell id="ErkjVR_Kb-ZnLnvYWNeu-47" value="" style="rhombus;whiteSpace=wrap;html=1;rounded=1;fontStyle=1;" vertex="1" parent="1">
          <mxGeometry x="770" y="1290" width="80" height="80" as="geometry" />
        </mxCell>
        <mxCell id="ErkjVR_Kb-ZnLnvYWNeu-49" value="Update to the result&lt;br&gt;&amp;nbsp;and Call Accumulate Rate Func" style="whiteSpace=wrap;html=1;rounded=1;fontStyle=1;fillColor=#f8cecc;strokeColor=#b85450;" vertex="1" parent="1">
          <mxGeometry x="500" y="1300" width="230" height="60" as="geometry" />
        </mxCell>
        <mxCell id="ErkjVR_Kb-ZnLnvYWNeu-51" value="&lt;span style=&quot;color: rgb(0, 0, 0); font-family: Helvetica; font-size: 12px; font-style: normal; font-variant-ligatures: normal; font-variant-caps: normal; font-weight: 700; letter-spacing: normal; orphans: 2; text-align: center; text-indent: 0px; text-transform: none; widows: 2; word-spacing: 0px; -webkit-text-stroke-width: 0px; background-color: rgb(251, 251, 251); text-decoration-thickness: initial; text-decoration-style: initial; text-decoration-color: initial; float: none; display: inline !important;&quot;&gt;TRUE&lt;/span&gt;" style="text;whiteSpace=wrap;html=1;" vertex="1" parent="1">
          <mxGeometry x="740" y="1300" width="70" height="40" as="geometry" />
        </mxCell>
        <mxCell id="ErkjVR_Kb-ZnLnvYWNeu-52" value="Notification for the administrator" style="whiteSpace=wrap;html=1;rounded=1;fontStyle=1;fillColor=#f8cecc;strokeColor=#b85450;" vertex="1" parent="1">
          <mxGeometry x="500" y="1400" width="230" height="60" as="geometry" />
        </mxCell>
        <mxCell id="ErkjVR_Kb-ZnLnvYWNeu-54" value="&lt;div style=&quot;text-align: center;&quot;&gt;&lt;span style=&quot;background-color: initial;&quot;&gt;&lt;b&gt;FALSE&lt;/b&gt;&lt;/span&gt;&lt;/div&gt;" style="text;whiteSpace=wrap;html=1;" vertex="1" parent="1">
          <mxGeometry x="750" y="1400" width="70" height="40" as="geometry" />
        </mxCell>
        <mxCell id="ErkjVR_Kb-ZnLnvYWNeu-55" value="" style="rounded=1;whiteSpace=wrap;html=1;fillColor=#dae8fc;strokeColor=#6c8ebf;" vertex="1" parent="1">
          <mxGeometry x="180" y="160" width="20" height="200" as="geometry" />
        </mxCell>
        <mxCell id="ErkjVR_Kb-ZnLnvYWNeu-56" value="&lt;span style=&quot;color: rgb(0, 0, 0); font-family: Helvetica; font-size: 12px; font-style: normal; font-variant-ligatures: normal; font-variant-caps: normal; letter-spacing: normal; orphans: 2; text-indent: 0px; text-transform: none; widows: 2; word-spacing: 0px; -webkit-text-stroke-width: 0px; background-color: rgb(251, 251, 251); text-decoration-thickness: initial; text-decoration-style: initial; text-decoration-color: initial; float: none; display: inline !important;&quot;&gt;CREATE AND&amp;nbsp;&lt;/span&gt;&lt;br style=&quot;border-color: var(--border-color); color: rgb(0, 0, 0); font-family: Helvetica; font-size: 12px; font-style: normal; font-variant-ligatures: normal; font-variant-caps: normal; letter-spacing: normal; orphans: 2; text-indent: 0px; text-transform: none; widows: 2; word-spacing: 0px; -webkit-text-stroke-width: 0px; background-color: rgb(251, 251, 251); text-decoration-thickness: initial; text-decoration-style: initial; text-decoration-color: initial;&quot;&gt;&lt;span style=&quot;color: rgb(0, 0, 0); font-family: Helvetica; font-size: 12px; font-style: normal; font-variant-ligatures: normal; font-variant-caps: normal; letter-spacing: normal; orphans: 2; text-indent: 0px; text-transform: none; widows: 2; word-spacing: 0px; -webkit-text-stroke-width: 0px; background-color: rgb(251, 251, 251); text-decoration-thickness: initial; text-decoration-style: initial; text-decoration-color: initial; float: none; display: inline !important;&quot;&gt;LOAD CONFIG FILE&lt;br&gt;&lt;/span&gt;" style="text;whiteSpace=wrap;html=1;align=center;fontStyle=1" vertex="1" parent="1">
          <mxGeometry x="50" y="235" width="140" height="50" as="geometry" />
        </mxCell>
        <mxCell id="ErkjVR_Kb-ZnLnvYWNeu-57" value="" style="rounded=1;whiteSpace=wrap;html=1;fillColor=#fff2cc;strokeColor=#d6b656;" vertex="1" parent="1">
          <mxGeometry x="180" y="420" width="20" height="270" as="geometry" />
        </mxCell>
        <mxCell id="ErkjVR_Kb-ZnLnvYWNeu-58" value="PREDICTION&lt;br&gt;SCHEDULE" style="text;whiteSpace=wrap;html=1;align=center;fontStyle=1" vertex="1" parent="1">
          <mxGeometry x="50" y="537.5" width="140" height="45" as="geometry" />
        </mxCell>
        <mxCell id="ErkjVR_Kb-ZnLnvYWNeu-59" value="" style="rounded=1;whiteSpace=wrap;html=1;fillColor=#d5e8d4;strokeColor=#82b366;" vertex="1" parent="1">
          <mxGeometry x="180" y="887.5" width="20" height="200" as="geometry" />
        </mxCell>
        <mxCell id="ErkjVR_Kb-ZnLnvYWNeu-60" value="COLLECT DATA FOR VALIDATION&lt;br&gt;SCHEDULE" style="text;whiteSpace=wrap;html=1;align=center;fontStyle=1" vertex="1" parent="1">
          <mxGeometry y="965" width="140" height="45" as="geometry" />
        </mxCell>
        <mxCell id="ErkjVR_Kb-ZnLnvYWNeu-61" value="" style="rounded=1;whiteSpace=wrap;html=1;fillColor=#ffe6cc;strokeColor=#d79b00;" vertex="1" parent="1">
          <mxGeometry x="180" y="1110" width="20" height="340" as="geometry" />
        </mxCell>
        <mxCell id="ErkjVR_Kb-ZnLnvYWNeu-62" value="&amp;nbsp;VALIDATION&lt;br&gt;SCHEDULE" style="text;whiteSpace=wrap;html=1;align=center;fontStyle=1" vertex="1" parent="1">
          <mxGeometry x="10" y="1253" width="140" height="45" as="geometry" />
        </mxCell>
        <mxCell id="ErkjVR_Kb-ZnLnvYWNeu-66" value="" style="edgeStyle=orthogonalEdgeStyle;rounded=0;orthogonalLoop=1;jettySize=auto;html=1;entryX=1;entryY=0.5;entryDx=0;entryDy=0;" edge="1" parent="1" source="ErkjVR_Kb-ZnLnvYWNeu-63" target="ErkjVR_Kb-ZnLnvYWNeu-47">
          <mxGeometry relative="1" as="geometry">
            <Array as="points">
              <mxPoint x="1020" y="1330" />
            </Array>
          </mxGeometry>
        </mxCell>
        <mxCell id="ErkjVR_Kb-ZnLnvYWNeu-63" value="(AWS lamdas)&lt;br&gt;Compare Funcs" style="whiteSpace=wrap;html=1;rounded=1;fontStyle=1;fillColor=#fff2cc;strokeColor=#d6b656;" vertex="1" parent="1">
          <mxGeometry x="960" y="1130" width="120" height="80" as="geometry" />
        </mxCell>
      </root>
    </mxGraphModel>
  </diagram>
</mxfile>
